:FULLY-SPECIFIED
:FORCE-ALL-JOINTS-BE-3DOF
:DEGREES
1427
root -2.08637 13.7129 12.6858 6.60851 27.3121 6.44142
lfemur 25.5624 -0.269813 -10.2341
ltibia 16.9652 -0 0
lfoot -15.8205 34.6632 5.77474e-005
ltoes -23.6441 0 0
rfemur -65.5731 -21.4251 12.2741
rtibia 74.2273 -0 0
rfoot -9.33325 10.2338 -0.000382423
rtoes 4.72824 -0 0
lowerback 10.1899 2.01868 -10.1824
upperback -3.35257 1.21246 -0.923419
thorax -9.6097 1.16486 4.5078
lowerneck -0.0223893 -11.6665 -10.5081
upperneck 6.16701 -16.0465 9.58733
head 3.46271 -7.97782 3.85379
lclavicle 1.01303e-014 -2.50966e-014 0
lhumerus -73.6908 -18.0259 104.395
lradius 100.834 -0 0
lwrist 58.2331 0 0
lhand -9.53093 41.5196 -0.0005641
lfingers 7.12502 -0 0
lthumb 16.4353 70.8433 -0.000543496
rclavicle 1.01303e-014 -2.50966e-014 0
rhumerus 63.1634 -13.9815 -27.814
rradius 81.992 -0 0
rwrist 26.8385 0 0
rhand -43.8662 -31.2768 -0.000298346
rfingers 7.12502 -0 0
rthumb -16.6924 -60.5793 -0.000245101
1428
root -2.09011 13.7113 12.6866 6.63252 27.301 6.45824
lfemur 25.5024 -0.254109 -10.2353
ltibia 17.0361 -0 0
lfoot -15.8188 34.676 2.86927e-005
ltoes -23.5594 0 0
rfemur -65.6258 -21.4631 12.3051
rtibia 74.2366 -0 0
rfoot -9.30947 10.2815 -0.000214994
rtoes 4.781 -0 0
lowerback 10.1929 2.01378 -10.1868
upperback -3.35904 1.20451 -0.923466
thorax -9.61757 1.16189 4.51161
lowerneck -0.0326227 -11.6594 -10.4988
upperneck 6.16223 -16.0348 9.57444
head 3.45994 -7.97192 3.84915
lclavicle 1.01303e-014 -2.50966e-014 0
lhumerus -73.692 -18.0489 104.42
lradius 100.81 -0 0
lwrist 58.2372 0 0
lhand -9.52589 41.4403 -0.000284314
lfingers 7.12502 -0 0
lthumb 16.4401 70.7635 -0.000273466
rclavicle 1.01303e-014 -2.50966e-014 0
rhumerus 63.1393 -13.9841 -27.7988
rradius 82.0237 -0 0
rwrist 26.7958 0 0
rhand -43.8404 -31.2645 -0.000161809
rfingers 7.12502 -0 0
rthumb -16.6676 -60.5689 -0.00013294
1429
root -2.09385 13.7096 12.6875 366.657 27.29 366.479
lfemur 25.4395 -0.23724 -10.24
ltibia 17.1148 0 0
lfoot -15.8202 34.6887 0
ltoes -23.52 0 0
rfemur -65.6805 -21.5026 12.3332
rtibia 74.2489 0 0
rfoot -9.28252 10.3274 0
rtoes 4.81966 0 0
lowerback 10.1998 2.00932 -10.193
upperback -3.36437 1.19648 -0.923438
thorax -9.62655 1.15899 4.51646
lowerneck -0.0430407 -11.652 -10.4902
upperneck 6.15585 -16.0225 9.56096
head 3.45668 -7.96576 3.84452
lclavicle 1.01303e-014 -2.50966e-014 0
lhumerus -73.6921 -18.0711 104.445
lradius 100.788 0 0
lwrist 58.2415 0 0
lhand -9.52497 41.3658 0
lfingers 7.12502 0 0
lthumb 16.441 -289.311 0
rclavicle 1.01303e-014 -2.50966e-014 0
rhumerus 63.1163 -13.9861 -27.7839
rradius 82.059 0 0
rwrist 26.7522 0 0
rhand -43.8098 -31.2493 0
rfingers 7.12502 0 0
rthumb -16.6381 -60.5561 0
1430
root -2.09708 13.709 12.6845 6.68134 27.2732 6.50414
lfemur 25.38 -0.217817 -10.2534
ltibia 17.197 -0 0
lfoot -15.8245 34.705 -4.20372e-005
ltoes -23.5193 0 0
rfemur -65.7384 -21.5465 12.3589
rtibia 74.2639 -0 0
rfoot -9.25316 10.3895 0.000859122
rtoes 4.84338 -0 0
lowerback 10.2056 2.00525 -10.205
upperback -3.37028 1.18822 -0.924002
thorax -9.6357 1.15633 4.52395
lowerneck -0.0489307 -11.6482 -10.4846
upperneck 6.1475 -16.0156 9.5513
head 3.45267 -7.96231 3.84102
lclavicle -2.05509e-014 3.18055e-015 0
lhumerus -73.707 -18.0918 104.474
lradius 100.77 -0 0
lwrist 58.2494 0 0
lhand -9.52213 41.294 0.000234882
lfingers 7.12502 -0 0
lthumb 16.4437 70.6171 0.000249571
rclavicle -2.05509e-014 3.18055e-015 0
rhumerus 63.1037 -13.999 -27.7707
rradius 82.102 -0 0
rwrist 26.7205 0 0
rhand -43.7838 -31.232 -1.61506e-005
rfingers 7.12502 -0 0
rthumb -16.613 -60.5412 1.72191e-005
1431
root -2.10032 13.7083 12.6816 6.70512 27.2459 6.53361
lfemur 25.3288 -0.194821 -10.2792
ltibia 17.2785 -0 0
lfoot -15.8312 34.7277 -0.000107927
ltoes -23.5463 0 0
rfemur -65.8005 -21.597 12.3828
rtibia 74.2806 -0 0
rfoot -9.22203 10.4824 0.00281263
rtoes 4.85312 -0 0
lowerback 10.2058 2.00147 -10.2258
upperback -3.3783 1.1796 -0.925715
thorax -9.64417 1.15401 4.53521
lowerneck -0.0465045 -11.6512 -10.4839
upperneck 6.13697 -16.019 9.54911
head 3.44773 -7.96395 3.8396
lclavicle -2.05509e-014 3.18055e-015 0
lhumerus -73.7496 -18.1107 104.512
lradius 100.756 -0 0
lwrist 58.2635 0 0
lhand -9.51213 41.2224 0.00039033
lfingers 7.12502 -0 0
lthumb 16.4534 70.545 0.000466209
rclavicle -2.05509e-014 3.18055e-015 0
rhumerus 63.1087 -14.032 -27.7602
rradius 82.156 -0 0
rwrist 26.7109 0 0
rhand -43.7701 -31.2135 -0.000370242
rfingers 7.12502 -0 0
rthumb -16.5999 -60.5245 -0.000188491
1432
root -2.10355 13.7077 12.6786 6.72857 27.2097 6.56701
lfemur 25.2841 -0.168738 -10.3159
ltibia 17.3601 -0 0
lfoot -15.84 34.7557 -0.00019125
ltoes -23.5993 0 0
rfemur -65.8661 -21.6531 12.405
rtibia 74.2989 -0 0
rfoot -9.18893 10.6008 0.00564771
rtoes 4.85023 -0 0
lowerback 10.2018 1.99794 -10.254
upperback -3.38797 1.17066 -0.928392
thorax -9.65218 1.15197 4.54968
lowerneck -0.037163 -11.6597 -10.4874
upperneck 6.12443 -16.0308 9.55318
head 3.44198 -7.96979 3.83994
lclavicle -2.05509e-014 3.18055e-015 0
lhumerus -73.8153 -18.1281 104.557
lradius 100.745 -0 0
lwrist 58.2828 0 0
lhand -9.49651 41.1512 0.000491291
lfingers 7.12502 -0 0
lthumb 16.4685 70.4731 0.000666745
rclavicle -2.05509e-014 3.18055e-015 0
rhumerus 63.1282 -14.0817 -27.7517
rradius 82.2195 -0 0
rwrist 26.7196 0 0
rhand -43.7663 -31.1936 -0.00099959
rfingers 7.12502 -0 0
rthumb -16.5964 -60.5063 -0.00057475
1433
root -2.10678 13.7071 12.6757 6.75191 27.1664 6.60395
lfemur 25.244 -0.140049 -10.3617
ltibia 17.4427 -0 0
lfoot -15.8506 34.7881 -0.000285446
ltoes -23.6768 0 0
rfemur -65.935 -21.7139 12.4258
rtibia 74.3183 -0 0
rfoot -9.15367 10.7396 0.00915397
rtoes 4.83606 -0 0
lowerback 10.1947 1.99464 -10.2883
upperback -3.39889 1.16141 -0.931849
thorax -9.65996 1.15016 4.56676
lowerneck -0.0223057 -11.6726 -10.4942
upperneck 6.11005 -16.0493 9.56229
head 3.4355 -7.97895 3.84173
lclavicle -2.05509e-014 3.18055e-015 0
lhumerus -73.8993 -18.1442 104.608
lradius 100.739 -0 0
lwrist 58.3063 0 0
lhand -9.47682 41.0807 0.000558651
lfingers 7.12502 -0 0
lthumb 16.4875 70.4016 0.000864102
rclavicle -2.05509e-014 3.18055e-015 0
rhumerus 63.1594 -14.1448 -27.7449
rradius 82.291 -0 0
rwrist 26.7427 0 0
rhand -43.7699 -31.1724 -0.00184252
rfingers 7.12502 -0 0
rthumb -16.5999 -60.4865 -0.00109981
1434
root -2.11002 13.7065 12.6727 6.77538 27.1177 6.64404
lfemur 25.2067 -0.109233 -10.4148
ltibia 17.5271 -0 0
lfoot -15.863 34.8237 -0.000384086
ltoes -23.7772 0 0
rfemur -66.0065 -21.7784 12.4451
rtibia 74.3385 -0 0
rfoot -9.11605 10.8936 0.013124
rtoes 4.81195 -0 0
lowerback 10.1859 1.99154 -10.3274
upperback -3.41061 1.15191 -0.935902
thorax -9.66771 1.1485 4.58589
lowerneck -0.00333171 -11.6888 -10.5037
upperneck 6.09401 -16.0727 9.57521
head 3.42841 -7.99053 3.84464
lclavicle -2.05509e-014 3.18055e-015 0
lhumerus -73.9968 -18.1594 104.662
lradius 100.734 -0 0
lwrist 58.3328 0 0
lhand -9.45458 41.0111 0.000609209
lfingers 7.12502 -0 0
lthumb 16.5089 70.331 0.00106721
rclavicle -2.05509e-014 3.18055e-015 0
rhumerus 63.1992 -14.2177 -27.7391
rradius 82.3691 -0 0
rwrist 26.7764 0 0
rhand -43.7784 -31.1498 -0.00283861
rfingers 7.12502 -0 0
rthumb -16.6082 -60.4653 -0.00172294
1435
root -2.11325 13.7058 12.6697 6.79921 27.0654 6.68689
lfemur 25.1703 -0.0767705 -10.4735
ltibia 17.6142 -0 0
lfoot -15.8769 34.8615 -0.000481103
ltoes -23.8986 0 0
rfemur -66.0802 -21.8456 12.4632
rtibia 74.3591 -0 0
rfoot -9.07586 11.0578 0.0173542
rtoes 4.77924 -0 0
lowerback 10.1765 1.98859 -10.3698
upperback -3.4227 1.14217 -0.940366
thorax -9.67566 1.14694 4.60647
lowerneck 0.0183595 -11.707 -10.5153
upperneck 6.07648 -16.0992 9.59073
head 3.4208 -8.00366 3.84837
lclavicle -2.05509e-014 3.18055e-015 0
lhumerus -74.1031 -18.1739 104.72
lradius 100.732 -0 0
lwrist 58.3613 0 0
lhand -9.43135 40.9426 0.000655718
lfingers 7.12502 -0 0
lthumb 16.5313 70.2614 0.001281
rclavicle -2.05509e-014 3.18055e-015 0
rhumerus 63.2448 -14.2973 -27.7338
rradius 82.4524 -0 0
rwrist 26.8169 0 0
rhand -43.7893 -31.1259 -0.00392901
rfingers 7.12502 -0 0
rthumb -16.6189 -60.4426 -0.00240479
1436
root -2.11648 13.7052 12.6668 6.82362 27.0111 6.73211
lfemur 25.1329 -0.0431402 -10.5361
ltibia 17.7047 -0 0
lfoot -15.8922 34.9006 -0.000570984
ltoes -24.0396 0 0
rfemur -66.1558 -21.9145 12.4802
rtibia 74.3799 -0 0
rfoot -9.03292 11.2268 0.0216453
rtoes 4.73928 -0 0
lowerback 10.1679 1.98578 -10.4142
upperback -3.43473 1.13224 -0.945056
thorax -9.68403 1.1454 4.62794
lowerneck 0.0413674 -11.7261 -10.5281
upperneck 6.05763 -16.1269 9.60761
head 3.41277 -8.01744 3.8526
lclavicle -2.05509e-014 3.18055e-015 0
lhumerus -74.2135 -18.1879 104.78
lradius 100.73 -0 0
lwrist 58.3908 0 0
lhand -9.40866 40.8755 0.000706983
lfingers 7.12502 -0 0
lthumb 16.5532 70.1933 0.00150647
rclavicle -2.05509e-014 3.18055e-015 0
rhumerus 63.2932 -14.38 -27.7285
rradius 82.5394 -0 0
rwrist 26.8604 0 0
rhand -43.8002 -31.1005 -0.00505672
rfingers 7.12502 -0 0
rthumb -16.6294 -60.4187 -0.0031077
1437
root -2.11972 13.7046 12.6638 6.84886 26.9566 6.77932
lfemur 25.0928 -0.00882452 -10.6008
ltibia 17.7994 -0 0
lfoot -15.9085 34.9397 -0.000648936
ltoes -24.1985 0 0
rfemur -66.2326 -21.9843 12.4963
rtibia 74.4004 -0 0
rfoot -8.98703 11.3956 0.025804
rtoes 4.69341 -0 0
lowerback 10.1612 1.98308 -10.4591
upperback -3.44627 1.12215 -0.949789
thorax -9.69302 1.14384 4.6497
lowerneck 0.0642904 -11.7448 -10.5415
upperneck 6.03764 -16.1542 9.62464
head 3.40442 -8.03099 3.85701
lclavicle -2.05509e-014 3.18055e-015 0
lhumerus -74.3231 -18.2019 104.839
lradius 100.729 -0 0
lwrist 58.4201 0 0
lhand -9.38805 40.8099 0.000768026
lfingers 7.12502 -0 0
lthumb 16.5731 70.127 0.00174087
rclavicle -2.05509e-014 3.18055e-015 0
rhumerus 63.3413 -14.4625 -27.7225
rradius 82.6286 -0 0
rwrist 26.9031 0 0
rhand -43.8084 -31.0737 -0.00616686
rfingers 7.12502 -0 0
rthumb -16.6375 -60.3935 -0.003796
